<?xml version="1.0" standalone="no"?>
<!DOCTYPE svg PUBLIC "-//W3C//DTD SVG 20010904//EN"
 "http://www.w3.org/TR/2001/REC-SVG-20010904/DTD/svg10.dtd">
<svg version="1.0" xmlns="http://www.w3.org/2000/svg"
 width="1280.000000pt" height="1103.000000pt" viewBox="0 0 1280.000000 1103.000000"
 preserveAspectRatio="xMidYMid meet">
<g transform="translate(0.000000,1103.000000) scale(0.100000,-0.100000)"
fill="#795548" stroke="none">
<path d="M6192 11011 c-230 -63 -433 -252 -506 -473 -15 -42 -29 -110 -32
-150 -13 -148 33 -343 112 -475 46 -75 76 -107 147 -151 l58 -36 -2 -125 c0
-69 2 -255 6 -413 7 -259 6 -288 -8 -288 -9 0 -51 13 -94 29 -309 115 -495
262 -562 444 -24 65 -28 152 -22 427 4 146 1 174 -18 244 -44 158 -155 333
-297 465 -85 79 -234 194 -322 248 -57 35 -58 35 -147 29 -160 -9 -323 -69
-555 -203 -131 -76 -423 -222 -623 -312 -517 -234 -1062 -395 -1592 -472 -330
-48 -526 -59 -1017 -59 -471 0 -526 -5 -635 -54 -108 -50 -109 -111 -5 -215
106 -105 190 -154 512 -299 202 -91 417 -162 487 -162 13 0 23 -2 23 -4 0 -2
-11 -28 -25 -58 -30 -65 -31 -99 -4 -156 60 -124 317 -217 721 -263 l106 -12
-10 -29 c-36 -103 91 -213 327 -285 84 -25 103 -27 275 -27 144 -1 201 3 257
17 94 22 93 22 93 -16 0 -81 82 -182 184 -227 111 -50 301 -64 453 -35 43 8
79 15 81 15 1 0 2 -14 2 -30 0 -127 192 -194 616 -216 l131 -6 -80 -77 c-174
-166 -257 -334 -259 -525 -4 -309 198 -531 656 -721 93 -39 317 -105 353 -105
32 0 29 -11 -12 -39 -72 -49 -192 -195 -242 -296 -35 -69 -63 -163 -77 -256
l-13 -91 39 -116 c41 -123 84 -215 126 -272 104 -140 239 -260 412 -366 95
-57 248 -134 269 -134 23 0 9 -18 -44 -55 -188 -129 -285 -343 -272 -599 8
-166 52 -278 157 -406 64 -77 127 -122 409 -296 l239 -148 -57 -64 c-91 -100
-210 -312 -230 -410 -6 -29 -11 -115 -11 -190 0 -153 14 -225 57 -300 26 -45
163 -190 231 -245 l33 -27 -43 -50 c-59 -69 -112 -158 -150 -254 -41 -106 -45
-229 -10 -317 31 -78 88 -168 148 -237 l52 -58 -18 -37 c-86 -175 -80 -311 19
-464 33 -52 49 -65 115 -99 l76 -39 0 -166 c0 -124 3 -170 14 -184 15 -21 85
-33 201 -34 104 -1 115 9 115 110 l0 79 35 0 c74 0 149 51 184 125 38 81 23
210 -35 296 l-33 50 42 62 c37 54 42 69 45 130 3 37 -1 88 -8 113 -14 49 -83
133 -144 175 l-35 23 87 43 c48 23 120 68 159 101 128 105 192 200 200 297 2
28 11 74 20 104 24 82 14 150 -40 257 -25 50 -61 111 -80 136 l-35 46 20 28
c30 45 87 160 102 206 36 112 41 148 41 278 -1 113 -5 147 -24 210 -30 96 -68
170 -124 245 l-45 59 27 16 c14 9 96 54 181 99 182 98 263 150 346 225 112
101 217 288 255 454 10 41 10 67 0 119 -42 227 -178 444 -349 558 -23 15 -42
29 -42 30 0 2 45 22 99 45 332 140 596 369 716 622 44 92 75 214 75 290 0 163
-108 423 -232 554 l-47 50 72 19 c420 107 784 354 861 585 24 73 32 223 16
303 -35 178 -112 327 -234 455 -53 55 -57 62 -35 62 79 0 365 24 421 35 87 18
208 74 237 111 18 23 22 38 18 72 -4 37 -2 42 12 37 154 -61 297 -71 406 -30
207 78 324 178 325 278 0 30 6 31 65 17 22 -5 92 -14 156 -20 291 -26 588 52
693 183 27 34 31 47 31 98 -1 53 1 59 20 59 55 1 310 31 377 45 178 37 278 84
357 171 73 80 88 162 46 244 -14 28 -14 28 21 35 63 11 355 103 476 149 314
119 588 318 588 426 0 55 -51 96 -157 127 -51 15 -115 17 -513 18 -358 0 -491
4 -625 18 -93 10 -213 22 -265 27 -549 56 -896 136 -1300 298 -348 140 -855
377 -1240 580 -63 33 -155 75 -205 93 -79 28 -103 32 -195 33 l-105 1 -70 -42
c-120 -71 -398 -325 -467 -427 -54 -78 -99 -178 -139 -306 -38 -121 -42 -204
-20 -365 7 -55 12 -131 9 -170 -12 -213 -231 -427 -538 -529 -93 -30 -201 -58
-206 -53 -5 5 15 737 22 802 5 47 9 53 65 98 101 81 177 197 220 337 27 90 32
268 10 365 -25 109 -94 238 -172 320 -146 153 -302 222 -524 231 -99 3 -133 1
-193 -15z m-191 -3349 c8 -7 35 -1089 28 -1096 -11 -9 -287 27 -639 84 -69 11
-201 29 -294 40 -245 30 -347 71 -453 183 -80 85 -113 167 -113 285 0 119 59
186 199 228 86 25 215 34 486 34 228 0 283 3 356 19 212 47 313 125 279 216
l-11 28 78 -7 c42 -3 80 -9 84 -14z m951 -52 c-3 -28 2 -49 17 -74 65 -105
243 -138 716 -135 233 2 290 -1 338 -14 84 -24 148 -60 189 -105 48 -53 61
-98 56 -191 -8 -126 -68 -220 -197 -305 -120 -79 -234 -114 -446 -135 -202
-21 -299 -33 -435 -51 -74 -10 -189 -23 -255 -30 -66 -6 -149 -15 -184 -19
l-64 -8 6 156 c4 86 12 327 18 536 6 209 14 383 18 388 9 9 110 24 176 26 l51
1 -4 -40z m-116 -1520 c336 -59 572 -145 657 -239 47 -52 60 -98 55 -191 -6
-102 -44 -184 -129 -275 -168 -180 -402 -309 -668 -370 -36 -9 -75 -18 -85
-21 -19 -6 -19 1 -13 292 13 591 18 760 23 792 6 39 7 39 160 12z m-786 -310
c0 -124 5 -335 10 -470 5 -135 7 -246 5 -248 -2 -3 -16 5 -32 16 -15 10 -197
124 -403 251 -206 128 -383 242 -392 253 -37 43 -11 159 52 231 101 114 307
201 575 241 172 26 169 27 177 -14 4 -19 7 -136 8 -260z m39 -1542 c1 -79 4
-241 7 -360 6 -169 4 -218 -5 -218 -7 0 -57 44 -111 98 -96 95 -176 204 -198
271 -42 123 29 228 216 322 93 46 90 50 91 -113z m746 -17 c165 -103 190 -122
190 -144 0 -33 -342 -460 -387 -483 l-31 -16 7 238 c4 130 12 259 17 285 6 26
9 91 7 143 -2 53 -1 96 2 95 3 0 91 -53 195 -118z"/>
</g>
</svg>
