<?xml version="1.0" standalone="no"?>
<!DOCTYPE svg PUBLIC "-//W3C//DTD SVG 20010904//EN"
 "http://www.w3.org/TR/2001/REC-SVG-20010904/DTD/svg10.dtd">
<svg version="1.0" xmlns="http://www.w3.org/2000/svg"
 width="1280.000000pt" height="1018.000000pt" viewBox="0 0 1280.000000 1018.000000"
 preserveAspectRatio="xMidYMid meet">
<g transform="translate(0.000000,1018.000000) scale(0.100000,-0.100000)"
fill="#000000" stroke="none">
<path d="M3245 10174 c-195 -41 -343 -96 -483 -179 -176 -105 -351 -254 -487
-416 -69 -83 -155 -201 -155 -214 0 -3 33 16 73 43 205 138 432 265 601 337
157 66 278 96 415 103 163 7 222 -6 388 -87 207 -102 300 -158 743 -451 451
-298 545 -355 722 -440 243 -116 400 -128 559 -44 68 36 238 205 301 299 25
39 45 71 43 73 -2 2 -50 -28 -107 -66 -180 -121 -272 -157 -388 -150 -125 7
-224 71 -705 459 -399 322 -579 445 -830 569 -180 89 -298 132 -429 155 -82
14 -214 18 -261 9z"/>
<path d="M10584 9775 c-148 -27 -336 -100 -512 -199 -146 -82 -327 -203 -717
-481 -590 -420 -598 -425 -725 -432 -60 -4 -86 -1 -131 16 -126 48 -253 156
-377 320 -34 45 -62 76 -62 69 0 -37 46 -173 85 -253 154 -315 418 -465 698
-398 145 35 462 207 912 496 346 222 525 328 701 418 189 95 256 118 364 126
230 15 467 -75 894 -341 105 -65 196 -121 204 -124 20 -7 -100 151 -205 271
-147 167 -352 332 -518 415 -199 99 -414 133 -611 97z"/>
<path d="M495 8046 c-125 -58 -324 -242 -424 -391 -178 -266 12 -257 292 14
180 174 281 343 235 389 -18 18 -47 15 -103 -12z"/>
<path d="M3853 7949 c-120 -11 -325 -44 -438 -71 l-90 -22 50 -8 c28 -4 129
-14 225 -23 563 -52 982 -191 1224 -406 48 -43 130 -139 123 -145 -1 -2 -31 6
-66 16 -188 59 -455 86 -677 70 -129 -10 -301 -34 -311 -43 -2 -2 47 -17 109
-32 249 -61 527 -174 683 -278 72 -47 205 -155 205 -166 0 -3 -127 -6 -283 -6
-216 -1 -310 -5 -401 -18 -213 -32 -411 -93 -534 -164 -24 -14 -42 -27 -40
-28 4 -4 388 -61 568 -85 412 -53 789 -75 1038 -60 266 16 320 29 373 87 60
64 65 107 33 251 -151 675 -599 1062 -1308 1131 -124 12 -346 12 -483 0z"/>
<path d="M12197 7723 c-43 -42 81 -244 247 -401 234 -221 415 -268 332 -86
-72 157 -332 416 -480 478 -40 17 -88 21 -99 9z"/>
<path d="M671 7660 c-207 -115 -480 -426 -469 -534 3 -28 7 -31 40 -34 67 -6
203 82 338 217 138 138 234 284 228 345 -3 28 -6 31 -43 34 -29 1 -55 -6 -94
-28z"/>
<path d="M8720 7669 c-197 -19 -398 -77 -585 -170 -438 -217 -738 -618 -825
-1101 -25 -140 -25 -184 0 -225 39 -64 53 -67 355 -60 294 7 521 24 800 62
319 44 769 130 759 147 -9 14 -76 45 -145 67 -157 50 -367 71 -792 80 l-328 6
83 61 c240 178 521 313 837 401 166 46 161 44 126 54 -205 62 -478 63 -802 3
-73 -13 -135 -24 -139 -24 -11 0 99 90 176 145 321 226 807 381 1288 412 57 3
99 9 95 14 -16 15 -231 78 -333 98 -205 39 -380 48 -570 30z"/>
<path d="M12002 7348 c-47 -47 55 -214 234 -388 138 -134 255 -210 323 -210
127 0 -77 316 -324 502 -121 92 -203 126 -233 96z"/>
<path d="M6365 5909 c-548 -58 -1011 -370 -1116 -754 -29 -109 -24 -259 14
-357 116 -302 436 -488 898 -523 155 -12 421 25 594 81 679 223 982 796 645
1219 -196 245 -610 379 -1035 334z m465 -252 c492 -129 634 -493 316 -812
-158 -159 -347 -256 -617 -317 -90 -20 -130 -23 -299 -22 -179 0 -203 3 -293
27 -478 131 -626 477 -337 790 161 174 400 297 677 347 158 29 419 23 553 -13z"/>
<path d="M2906 3794 c-232 -46 -473 -258 -614 -539 -203 -408 -273 -1057 -181
-1700 123 -863 520 -1292 1168 -1262 210 10 490 76 661 156 159 74 319 111
485 111 134 0 221 -20 334 -76 80 -39 108 -61 192 -145 144 -143 166 -146 408
-48 214 87 256 99 346 99 156 0 262 -40 551 -205 339 -195 446 -218 666 -145
95 32 235 102 330 164 90 59 115 61 377 21 126 -19 253 -35 282 -35 82 0 173
26 289 80 121 57 369 125 429 117 20 -2 83 -18 140 -35 243 -73 461 -105 726
-106 221 -1 255 4 365 60 163 82 558 452 742 694 214 284 332 530 395 829 24
113 27 148 27 331 1 230 -12 320 -70 524 -93 323 -257 500 -626 676 -213 101
-407 150 -597 150 -295 0 -530 -98 -789 -328 -111 -99 -150 -115 -283 -120
-157 -6 -349 28 -654 115 -129 37 -193 34 -346 -15 -226 -74 -412 -112 -542
-112 l-67 0 -33 48 c-48 71 -146 165 -200 191 -169 82 -363 18 -579 -189 -67
-64 -79 -71 -143 -86 -39 -10 -129 -19 -205 -21 l-135 -5 -65 57 c-127 111
-382 261 -494 291 -126 34 -267 5 -611 -123 -154 -57 -238 -73 -389 -73 -150
0 -170 9 -263 112 -268 296 -562 502 -776 543 -94 18 -158 18 -251 -1z m239
-188 c152 -40 337 -168 548 -378 l157 -156 0 -74 c0 -69 -40 -1051 -44 -1055
-2 -2 -413 74 -566 106 -233 48 -580 127 -785 180 l-190 48 2 69 c9 248 86
588 179 793 104 226 312 430 480 470 59 14 163 12 219 -3z m6783 -302 c213
-43 529 -202 656 -330 78 -78 140 -181 175 -291 32 -100 71 -269 71 -311 0
-27 -14 -34 -255 -120 -322 -115 -734 -225 -1165 -312 -209 -42 -236 -45 -242
-31 -4 9 -35 260 -69 558 l-63 543 30 31 c51 54 180 146 264 188 190 95 380
119 598 75z m-4683 -191 c88 -44 252 -147 308 -195 l28 -23 -11 -285 c-6 -157
-15 -397 -20 -535 -5 -137 -10 -270 -10 -294 l0 -43 -82 6 c-239 19 -557 50
-748 72 -293 34 -702 92 -710 101 -6 8 24 819 36 968 l5 70 122 -3 c146 -4
294 16 399 54 188 69 389 135 448 148 88 19 129 11 235 -41z m1511 -3 c20 -13
61 -57 92 -99 66 -90 71 -95 141 -128 51 -25 60 -26 168 -20 l113 6 0 -578 0
-578 -31 -7 c-84 -16 -1323 -1 -1474 19 l-40 5 17 463 c9 254 18 495 20 535
l3 73 125 3 c136 4 216 16 317 47 57 18 77 31 168 118 173 163 280 203 381
141z m1189 -110 c124 -36 337 -88 440 -106 119 -22 356 -25 424 -5 23 7 45 10
48 8 5 -6 126 -1028 121 -1032 -4 -5 -337 -51 -493 -69 -263 -31 -609 -61
-815 -71 -69 -3 -144 -8 -167 -11 l-43 -5 0 600 0 600 43 11 c23 6 105 31 182
55 77 24 151 44 165 44 14 1 57 -8 95 -19z m2885 -1045 c-67 -470 -357 -919
-871 -1346 -208 -174 -222 -179 -455 -179 l-163 0 -6 33 c-10 60 -146 1240
-143 1242 2 1 57 12 123 24 466 85 1026 235 1415 380 l105 39 3 -57 c2 -31 -2
-92 -8 -136z m-8354 76 c380 -95 916 -208 1217 -257 61 -9 107 -22 107 -28 0
-47 -50 -1170 -52 -1171 -10 -8 -119 -39 -213 -61 -150 -34 -375 -44 -492 -20
-163 33 -288 101 -399 217 -236 248 -351 633 -387 1296 -4 71 -1 87 13 78 4
-2 97 -27 206 -54z m1989 -371 c341 -43 621 -72 878 -91 92 -7 172 -16 178
-19 7 -5 5 -152 -6 -486 -9 -263 -18 -488 -20 -499 -3 -16 -42 -35 -176 -88
l-171 -69 -81 79 c-96 93 -152 133 -251 178 -131 61 -222 79 -391 80 -160 0
-244 -13 -397 -61 -44 -14 -81 -24 -83 -22 -5 4 34 970 41 1024 l5 40 82 -13
c45 -7 222 -31 392 -53z m4611 -593 c39 -331 70 -604 68 -606 -7 -8 -234 43
-359 80 -71 21 -148 39 -171 39 -40 0 -234 -44 -339 -77 -27 -8 -99 -38 -159
-66 -143 -65 -188 -69 -426 -33 -96 15 -187 29 -202 32 l-28 6 0 542 0 543
151 7 c335 15 874 66 1169 110 85 13 171 24 190 25 l35 1 71 -603z m-2826 452
c184 -6 488 -9 676 -7 l341 5 6 -270 c4 -149 7 -395 7 -547 l0 -276 -37 -13
c-21 -8 -69 -33 -106 -58 -152 -97 -317 -163 -409 -163 -78 1 -172 38 -348
139 -332 191 -489 251 -658 251 l-43 0 6 63 c2 34 9 213 15 397 6 184 13 373
16 419 l6 84 97 -7 c53 -3 247 -11 431 -17z"/>
</g>
</svg>
