<?xml version="1.0" standalone="no"?>
<!DOCTYPE svg PUBLIC "-//W3C//DTD SVG 20010904//EN"
 "http://www.w3.org/TR/2001/REC-SVG-20010904/DTD/svg10.dtd">
<svg version="1.0" xmlns="http://www.w3.org/2000/svg"
 width="878.000000pt" height="1280.000000pt" viewBox="0 0 878.000000 1280.000000"
 preserveAspectRatio="xMidYMid meet">
<g transform="translate(0.000000,1280.000000) scale(0.100000,-0.100000)"
fill="#000000" stroke="none">
<path d="M6390 12790 c-25 -5 -106 -14 -180 -20 -480 -41 -1079 -187 -1570
-382 -177 -70 -402 -170 -396 -175 3 -3 125 33 273 80 525 168 802 242 1103
298 378 70 781 100 1073 80 438 -30 740 -120 1012 -302 412 -276 659 -743 740
-1399 36 -296 36 -721 0 -1021 -58 -482 -192 -914 -434 -1398 -121 -241 -202
-377 -424 -716 -245 -372 -339 -530 -442 -740 -183 -373 -270 -689 -310 -1122
-8 -90 -19 -337 -25 -550 -13 -478 -26 -760 -46 -968 -125 -1337 -363 -2312
-754 -3090 -223 -445 -406 -704 -613 -870 -84 -67 -264 -165 -304 -165 l-23 0
0 188 c0 195 16 408 49 672 24 185 28 212 91 635 96 646 118 859 127 1220 23
1032 -196 1856 -633 2374 -122 145 -186 195 -81 63 293 -367 474 -875 554
-1552 25 -219 25 -923 -1 -1180 -54 -545 -117 -909 -257 -1495 -101 -421 -129
-591 -129 -779 1 -254 69 -389 226 -449 38 -15 85 -27 104 -27 47 0 187 50
253 91 184 113 399 329 623 624 567 750 913 1682 1143 3080 94 566 113 748
171 1605 55 813 67 910 142 1170 78 272 212 551 523 1095 205 359 354 646 438
845 329 780 427 1490 321 2340 -71 574 -261 1071 -523 1368 -266 302 -703 500
-1216 552 -60 6 -138 15 -171 20 -72 12 -369 11 -434 0z"/>
<path d="M1640 12048 c-360 -29 -715 -147 -928 -308 -349 -263 -628 -798 -682
-1310 -6 -58 -15 -135 -20 -172 -13 -86 -13 -323 0 -402 5 -33 14 -108 20
-166 32 -306 125 -654 261 -973 164 -384 380 -758 804 -1392 266 -399 346
-528 446 -720 115 -222 175 -393 199 -568 22 -158 0 -258 -134 -605 -101 -261
-165 -476 -235 -792 -70 -315 -91 -502 -91 -820 0 -393 42 -778 145 -1340 19
-102 55 -297 80 -435 94 -520 183 -804 305 -985 120 -176 296 -229 418 -124
119 102 195 323 291 854 58 318 97 495 186 850 385 1539 883 2540 1626 3265
167 163 275 256 449 384 175 129 183 136 125 105 -97 -53 -332 -214 -460 -316
-883 -706 -1505 -1767 -2005 -3423 -98 -325 -187 -652 -286 -1048 -48 -194
-81 -306 -88 -304 -19 6 -110 378 -165 672 -97 520 -141 983 -141 1485 1 515
46 916 150 1318 49 186 87 289 185 501 162 348 180 414 179 646 0 149 -4 184
-28 289 -39 167 -75 267 -166 451 -126 259 -257 454 -607 909 -217 281 -293
388 -396 552 -521 832 -800 1735 -737 2386 36 366 164 652 400 888 304 305
659 432 1255 447 267 6 484 -4 1000 -46 66 -6 217 -18 335 -28 275 -23 1340
-26 1535 -5 261 29 447 64 600 113 91 30 228 89 222 96 -2 2 -35 -9 -73 -23
-399 -152 -856 -200 -1442 -154 -231 19 -545 59 -1012 130 -777 119 -1161 148
-1520 118z"/>
</g>
</svg>
