<?xml version="1.0" encoding="utf-8"?>
<!-- Generator: Adobe Illustrator 14.0.0, SVG Export Plug-In . SVG Version: 6.00 Build 43363)  -->
<!DOCTYPE svg PUBLIC "-//W3C//DTD SVG 1.1//EN" "http://www.w3.org/Graphics/SVG/1.1/DTD/svg11.dtd">
<svg version="1.1" id="Ebene_1" xmlns="http://www.w3.org/2000/svg" xmlns:xlink="http://www.w3.org/1999/xlink" x="0px" y="0px"
	 width="200px" height="200px" viewBox="0 0 200 200" enable-background="new 0 0 200 200" xml:space="preserve">
<path d="M181.732,27.5l-16.45-16.451c-1.495-1.495-3.453-2.242-5.412-2.242c-1.96,0-3.919,0.747-5.413,2.241l-40.948,40.949
	c-2.989,2.988-2.989,7.834,0,10.822l16.452,16.452l-14.083,14.085L91.01,90.414L5.676,175.747c-1.893,1.894-1.893,4.962,0,6.854
	l8.499,8.5c0.909,0.908,2.143,1.42,3.428,1.42c1.286,0,2.52-0.512,3.428-1.42l77.887-77.888l24.867,2.944l73.305-73.304
	l-8.085-8.085L181.732,27.5z M123.947,57.408l0.49-0.489l6.115,3.09l-3.572-5.633l2.354-2.354l11.38,6.052l-5.999-11.434
	l2.764-2.764l6.554,3.404l-3.216-6.741l5.119-5.119l6.115,3.091l-3.572-5.634l2.354-2.354l11.381,6.053l-5.999-11.435l2.763-2.764
	l3.723,1.934l11.111,11.111l-35.922,35.923L123.947,57.408z"/>
</svg>
